<!-- D16: the space of word vectors, 2013 — three neighbourhoods and one dot for "bank". After ia-advocacia slide 13. Positions illustrative. -->
<svg viewBox="0 0 820 400" xmlns="http://www.w3.org/2000/svg">
  <rect class="dg-forma" x="40" y="50" width="250" height="150" rx="10" stroke-width="1.2" stroke-dasharray="6 5"/>
  <text class="dg-menor" x="60" y="76" font-size="13">FINANCE</text>
  <g class="dg-rotulo" font-size="16">
    <text x="70" y="115">loan</text><text x="150" y="105">credit</text><text x="90" y="155">interest</text><text x="185" y="165">mortgage</text><text x="220" y="130">rate</text>
  </g>
  <rect class="dg-forma" x="530" y="40" width="250" height="140" rx="10" stroke-width="1.2" stroke-dasharray="6 5"/>
  <text class="dg-menor" x="550" y="66" font-size="13">SUPPLY CHAIN</text>
  <g class="dg-rotulo" font-size="16">
    <text x="560" y="105">shipment</text><text x="680" y="95">freight</text><text x="590" y="150">warehouse</text><text x="700" y="155">supplier</text>
  </g>
  <rect class="dg-forma" x="530" y="230" width="250" height="140" rx="10" stroke-width="1.2" stroke-dasharray="6 5"/>
  <text class="dg-menor" x="550" y="256" font-size="13">LANDSCAPE</text>
  <g class="dg-rotulo" font-size="16">
    <text x="560" y="295">river</text><text x="650" y="285">shore</text><text x="590" y="340">valley</text><text x="690" y="345">coast</text>
  </g>
  <circle class="dg-ponto-2" cx="400" cy="235" r="11"/>
  <text class="dg-titulo" x="400" y="270" font-size="19" text-anchor="middle" font-style="italic">bank</text>
  <path class="dg-eixo" d="M 388 228 L 296 170" stroke-width="1" stroke-dasharray="4 4"/>
  <path class="dg-eixo" d="M 412 240 L 526 290" stroke-width="1" stroke-dasharray="4 4"/>
  <text class="dg-menor" x="400" y="300" font-size="14" text-anchor="middle">one dot — loan or river?</text>
  <text class="dg-menor" x="30" y="385" font-size="15">2013: one vector per word type, wherever the word appears · the model cannot tell the two "banks" apart</text>
</svg>
